# xmcd
#
# Track frame offsets:
#	150
#	19280
#	33307
#	50810
#	61065
#	74075
#	90885
#	104742
#	128382
#	140455
#	156935
#	174565
#	195655
#	211070
#	224347
#	240780
#	250552
#	267122
#
# Disc length: 3763 seconds
#
# Revision: 1
# Processed by: cddbd v1.5.1PL2 Copyright (c) Steve Scherf et al.
# Submitted via: audiograbber 1.83.01
#
DISCID=f70eb112
DTITLE=Various Artist - TOP 100
DYEAR=1900
DGENRE=
TTITLE0=Captain Gumbo - Dolores
TTITLE1=Verhaegh, Cor - Little Rody
TTITLE2=Cash on Delivery - No more you
TTITLE3=Old Home Bluegrass Boys - betty love
TTITLE4=West Virginian Railroad - Blue water
TTITLE5=Steneker, Ben and Sandra Vanreys - Colorado
TTITLE6=Szabo, Jany - Louisiana South
TTITLE7=Still Going West - cold and lonely wintersday
TTITLE8=Windfall - Friday night
TTITLE9=the Original Indian T Band - Rattle Snake Bill
TTITLE10=Ferrey, Nick - All I want to tell you
TTITLE11=Phoenix - Little things
TTITLE12=Jong, Hans De - Let me hold you
TTITLE13=Major Dundee - Twist the dial
TTITLE14=Gee, Eddie - Moving along
TTITLE15=Young, Waylon and Dale Watson - I hope there's a hillbilly heaven
TTITLE16=Harmony Trail - Miss you like crazy
TTITLE17=Savannah - I'll never make it without you
EXTD=
EXTT0=
EXTT1=
EXTT2=
EXTT3=
EXTT4=
EXTT5=
EXTT6=
EXTT7=
EXTT8=
EXTT9=
EXTT10=
EXTT11=
EXTT12=
EXTT13=
EXTT14=
EXTT15=
EXTT16=
EXTT17=
PLAYORDER=
